<mxfile host="app.diagrams.net" agent="Mozilla/5.0 (Windows NT 10.0; Win64; x64; rv:142.0) Gecko/20100101 Firefox/142.0" version="28.2.0">
  <diagram name="PÃ¡gina-1" id="nY_NjSttG6BQX160s31U">
    <mxGraphModel dx="1720" dy="1504" grid="0" gridSize="10" guides="0" tooltips="1" connect="1" arrows="1" fold="1" page="0" pageScale="1" pageWidth="827" pageHeight="1169" background="#000000" math="0" shadow="1">
      <root>
        <mxCell id="0" />
        <mxCell id="1" parent="0" />
        <mxCell id="Tn1fUAYsEKRrsNGboQnT-29" style="edgeStyle=orthogonalEdgeStyle;rounded=0;orthogonalLoop=1;jettySize=auto;html=1;entryX=0;entryY=0.5;entryDx=0;entryDy=0;curved=1;fontColor=light-dark(#FFFFFF,#EDEDED);fillColor=none;strokeColor=#FFFFFF;" edge="1" parent="1" source="Tn1fUAYsEKRrsNGboQnT-1" target="Tn1fUAYsEKRrsNGboQnT-14">
          <mxGeometry relative="1" as="geometry" />
        </mxCell>
        <mxCell id="Tn1fUAYsEKRrsNGboQnT-30" style="edgeStyle=orthogonalEdgeStyle;rounded=0;orthogonalLoop=1;jettySize=auto;html=1;entryX=0;entryY=0.25;entryDx=0;entryDy=0;curved=1;fontColor=light-dark(#FFFFFF,#EDEDED);fillColor=none;strokeColor=#FFFFFF;" edge="1" parent="1" source="Tn1fUAYsEKRrsNGboQnT-1" target="Tn1fUAYsEKRrsNGboQnT-10">
          <mxGeometry relative="1" as="geometry" />
        </mxCell>
        <mxCell id="Tn1fUAYsEKRrsNGboQnT-31" style="edgeStyle=orthogonalEdgeStyle;rounded=0;orthogonalLoop=1;jettySize=auto;html=1;entryX=0;entryY=0.5;entryDx=0;entryDy=0;curved=1;fontColor=light-dark(#FFFFFF,#EDEDED);fillColor=none;strokeColor=#FFFFFF;" edge="1" parent="1" source="Tn1fUAYsEKRrsNGboQnT-1" target="Tn1fUAYsEKRrsNGboQnT-11">
          <mxGeometry relative="1" as="geometry" />
        </mxCell>
        <mxCell id="Tn1fUAYsEKRrsNGboQnT-32" style="edgeStyle=orthogonalEdgeStyle;rounded=0;orthogonalLoop=1;jettySize=auto;html=1;entryX=0;entryY=0.5;entryDx=0;entryDy=0;curved=1;fontColor=light-dark(#FFFFFF,#EDEDED);fillColor=none;strokeColor=#FFFFFF;" edge="1" parent="1" source="Tn1fUAYsEKRrsNGboQnT-1" target="Tn1fUAYsEKRrsNGboQnT-12">
          <mxGeometry relative="1" as="geometry" />
        </mxCell>
        <mxCell id="Tn1fUAYsEKRrsNGboQnT-33" style="edgeStyle=orthogonalEdgeStyle;rounded=0;orthogonalLoop=1;jettySize=auto;html=1;entryX=0;entryY=0.5;entryDx=0;entryDy=0;curved=1;fontColor=light-dark(#FFFFFF,#EDEDED);fillColor=none;strokeColor=#FFFFFF;" edge="1" parent="1" source="Tn1fUAYsEKRrsNGboQnT-1" target="Tn1fUAYsEKRrsNGboQnT-13">
          <mxGeometry relative="1" as="geometry" />
        </mxCell>
        <mxCell id="Tn1fUAYsEKRrsNGboQnT-34" style="edgeStyle=orthogonalEdgeStyle;rounded=0;orthogonalLoop=1;jettySize=auto;html=1;entryX=0;entryY=0.5;entryDx=0;entryDy=0;curved=1;fontColor=light-dark(#FFFFFF,#EDEDED);fillColor=none;strokeColor=#FFFFFF;" edge="1" parent="1" source="Tn1fUAYsEKRrsNGboQnT-1" target="Tn1fUAYsEKRrsNGboQnT-15">
          <mxGeometry relative="1" as="geometry" />
        </mxCell>
        <mxCell id="Tn1fUAYsEKRrsNGboQnT-35" style="edgeStyle=orthogonalEdgeStyle;rounded=0;orthogonalLoop=1;jettySize=auto;html=1;entryX=0;entryY=0.5;entryDx=0;entryDy=0;curved=1;fontColor=light-dark(#FFFFFF,#EDEDED);fillColor=none;strokeColor=#FFFFFF;" edge="1" parent="1" source="Tn1fUAYsEKRrsNGboQnT-1" target="Tn1fUAYsEKRrsNGboQnT-19">
          <mxGeometry relative="1" as="geometry" />
        </mxCell>
        <mxCell id="Tn1fUAYsEKRrsNGboQnT-36" style="edgeStyle=orthogonalEdgeStyle;rounded=0;orthogonalLoop=1;jettySize=auto;html=1;entryX=0;entryY=0.5;entryDx=0;entryDy=0;curved=1;fontColor=light-dark(#FFFFFF,#EDEDED);fillColor=none;strokeColor=#FFFFFF;" edge="1" parent="1" source="Tn1fUAYsEKRrsNGboQnT-1" target="Tn1fUAYsEKRrsNGboQnT-18">
          <mxGeometry relative="1" as="geometry" />
        </mxCell>
        <mxCell id="Tn1fUAYsEKRrsNGboQnT-37" style="edgeStyle=orthogonalEdgeStyle;rounded=0;orthogonalLoop=1;jettySize=auto;html=1;entryX=0;entryY=0.5;entryDx=0;entryDy=0;curved=1;fontColor=light-dark(#FFFFFF,#EDEDED);fillColor=none;strokeColor=#FFFFFF;" edge="1" parent="1" source="Tn1fUAYsEKRrsNGboQnT-1" target="Tn1fUAYsEKRrsNGboQnT-9">
          <mxGeometry relative="1" as="geometry" />
        </mxCell>
        <mxCell id="Tn1fUAYsEKRrsNGboQnT-38" style="edgeStyle=orthogonalEdgeStyle;rounded=0;orthogonalLoop=1;jettySize=auto;html=1;entryX=0;entryY=0.5;entryDx=0;entryDy=0;curved=1;fontColor=light-dark(#FFFFFF,#EDEDED);fillColor=none;strokeColor=#FFFFFF;" edge="1" parent="1" source="Tn1fUAYsEKRrsNGboQnT-1" target="Tn1fUAYsEKRrsNGboQnT-9">
          <mxGeometry relative="1" as="geometry" />
        </mxCell>
        <mxCell id="Tn1fUAYsEKRrsNGboQnT-1" value="DELITOS_CIBERNETICOS" style="ellipse;html=1;whiteSpace=wrap;fillColor=none;fontColor=light-dark(#FFFFFF,#EDEDED);strokeColor=#FFFFFF;" vertex="1" parent="1">
          <mxGeometry x="260" y="250" width="176" height="80" as="geometry" />
        </mxCell>
        <mxCell id="Tn1fUAYsEKRrsNGboQnT-21" style="edgeStyle=orthogonalEdgeStyle;rounded=0;orthogonalLoop=1;jettySize=auto;html=1;curved=1;fontColor=light-dark(#FFFFFF,#EDEDED);fillColor=none;strokeColor=#FFFFFF;" edge="1" parent="1" source="Tn1fUAYsEKRrsNGboQnT-2" target="Tn1fUAYsEKRrsNGboQnT-1">
          <mxGeometry relative="1" as="geometry" />
        </mxCell>
        <mxCell id="Tn1fUAYsEKRrsNGboQnT-2" value="&lt;div align=&quot;center&quot;&gt;INCIDENTE&lt;ul&gt;&lt;li&gt;&lt;span style=&quot;font-size:12.0pt;font-family:&amp;quot;Times New Roman&amp;quot;,serif;mso-fareast-font-family:&amp;lt;br/&amp;gt;&amp;quot;Times New Roman&amp;quot;;mso-fareast-language:ES-BO&quot;&gt;id_incidente&lt;/span&gt;&lt;/li&gt;&lt;li&gt;&lt;span style=&quot;font-size:12.0pt;font-family:&amp;quot;Times New Roman&amp;quot;,serif;mso-fareast-font-family:&amp;lt;br/&amp;gt;&amp;quot;Times New Roman&amp;quot;;mso-fareast-language:ES-BO&quot;&gt;tipo_delito&lt;/span&gt;&lt;/li&gt;&lt;li&gt;&lt;span style=&quot;font-size:12.0pt;font-family:&amp;quot;Times New Roman&amp;quot;,serif;mso-fareast-font-family:&amp;lt;br/&amp;gt;&amp;quot;Times New Roman&amp;quot;;mso-fareast-language:ES-BO&quot;&gt;fecha_ocurrencia&lt;/span&gt;&lt;/li&gt;&lt;li&gt;&lt;span style=&quot;font-size:12.0pt;font-family:&amp;quot;Times New Roman&amp;quot;,serif;mso-fareast-font-family:&amp;lt;br/&amp;gt;&amp;quot;Times New Roman&amp;quot;;mso-fareast-language:ES-BO&quot;&gt;severidad&lt;/span&gt;&lt;/li&gt;&lt;li&gt;&lt;span style=&quot;font-size:12.0pt;font-family:&amp;quot;Times New Roman&amp;quot;,serif;mso-fareast-font-family:&amp;lt;br/&amp;gt;&amp;quot;Times New Roman&amp;quot;;mso-fareast-language:ES-BO&quot;&gt;tiempo_deteccion_horas&lt;/span&gt;&lt;/li&gt;&lt;li&gt;&lt;span style=&quot;font-size:12.0pt;font-family:&amp;quot;Times New Roman&amp;quot;,serif;mso-fareast-font-family:&amp;lt;br/&amp;gt;&amp;quot;Times New Roman&amp;quot;;mso-fareast-language:ES-BO&quot;&gt;tiempo_respuesta_horas&lt;/span&gt;&lt;/li&gt;&lt;li&gt;&lt;span style=&quot;font-size:12.0pt;font-family:&amp;quot;Times New Roman&amp;quot;,serif;mso-fareast-font-family:&amp;lt;br/&amp;gt;&amp;quot;Times New Roman&amp;quot;;mso-fareast-language:ES-BO&quot;&gt;costo_total&lt;/span&gt;&lt;/li&gt;&lt;/ul&gt;&lt;/div&gt;" style="rounded=0;html=1;align=center;whiteSpace=wrap;fillColor=none;fontColor=light-dark(#FFFFFF,#EDEDED);strokeColor=#FFFFFF;" vertex="1" parent="1">
          <mxGeometry x="30" y="-170" width="190" height="190" as="geometry" />
        </mxCell>
        <mxCell id="Tn1fUAYsEKRrsNGboQnT-23" style="edgeStyle=orthogonalEdgeStyle;rounded=0;orthogonalLoop=1;jettySize=auto;html=1;curved=1;fontColor=light-dark(#FFFFFF,#EDEDED);fillColor=none;strokeColor=#FFFFFF;" edge="1" parent="1" source="Tn1fUAYsEKRrsNGboQnT-3" target="Tn1fUAYsEKRrsNGboQnT-1">
          <mxGeometry relative="1" as="geometry" />
        </mxCell>
        <mxCell id="Tn1fUAYsEKRrsNGboQnT-3" value="ATACANTE&lt;ul&gt;&lt;li class=&quot;MsoNormal&quot; style=&quot;margin-top:0cm;margin-right:0cm;margin-bottom:0cm;&amp;lt;br/&amp;gt;margin-left:18.0pt;margin-bottom:.0001pt;line-height:normal&quot;&gt;&lt;span style=&quot;font-size:12.0pt;font-family:&amp;quot;Times New Roman&amp;quot;,serif;mso-fareast-font-family:&amp;lt;br/&amp;gt;&amp;quot;Times New Roman&amp;quot;;mso-fareast-language:ES-BO&quot;&gt;id_atacante&lt;/span&gt;&lt;/li&gt;&lt;li class=&quot;MsoNormal&quot; style=&quot;margin-top:0cm;margin-right:0cm;margin-bottom:0cm;&amp;lt;br/&amp;gt;margin-left:18.0pt;margin-bottom:.0001pt;line-height:normal&quot;&gt;&lt;span style=&quot;font-size:12.0pt;font-family:&amp;quot;Times New Roman&amp;quot;,serif;mso-fareast-font-family:&amp;lt;br/&amp;gt;&amp;quot;Times New Roman&amp;quot;;mso-fareast-language:ES-BO&quot;&gt;origen_estimado&lt;/span&gt;&lt;/li&gt;&lt;li class=&quot;MsoNormal&quot; style=&quot;margin-top:0cm;margin-right:0cm;margin-bottom:0cm;&amp;lt;br/&amp;gt;margin-left:18.0pt;margin-bottom:.0001pt;line-height:normal&quot;&gt;&lt;span style=&quot;font-size:12.0pt;font-family:&amp;quot;Times New Roman&amp;quot;,serif;mso-fareast-font-family:&amp;lt;br/&amp;gt;&amp;quot;Times New Roman&amp;quot;;mso-fareast-language:ES-BO&quot;&gt;nivel_sofisticacion&lt;/span&gt;&lt;/li&gt;&lt;li class=&quot;MsoNormal&quot; style=&quot;margin-top:0cm;margin-right:0cm;margin-bottom:0cm;&amp;lt;br/&amp;gt;margin-left:18.0pt;margin-bottom:.0001pt;line-height:normal&quot;&gt;&lt;span style=&quot;font-size:12.0pt;font-family:&amp;quot;Times New Roman&amp;quot;,serif;mso-fareast-font-family:&amp;lt;br/&amp;gt;&amp;quot;Times New Roman&amp;quot;;mso-fareast-language:ES-BO&quot;&gt;tecnicas_utilizadas&lt;/span&gt;&lt;/li&gt;&lt;/ul&gt;&lt;br&gt;&lt;div&gt;&lt;br&gt;&lt;/div&gt;" style="rounded=0;html=1;verticalAlign=top;whiteSpace=wrap;fillColor=none;fontColor=light-dark(#FFFFFF,#EDEDED);strokeColor=#FFFFFF;" vertex="1" parent="1">
          <mxGeometry x="30" y="180" width="180" height="130" as="geometry" />
        </mxCell>
        <mxCell id="Tn1fUAYsEKRrsNGboQnT-24" style="edgeStyle=orthogonalEdgeStyle;rounded=0;orthogonalLoop=1;jettySize=auto;html=1;curved=1;fontColor=light-dark(#FFFFFF,#EDEDED);fillColor=none;strokeColor=#FFFFFF;" edge="1" parent="1" source="Tn1fUAYsEKRrsNGboQnT-4" target="Tn1fUAYsEKRrsNGboQnT-1">
          <mxGeometry relative="1" as="geometry" />
        </mxCell>
        <mxCell id="Tn1fUAYsEKRrsNGboQnT-4" value="ASSET&lt;ul&gt;&lt;li class=&quot;MsoNormal&quot; style=&quot;margin-top:0cm;margin-right:0cm;margin-bottom:0cm;&amp;lt;br/&amp;gt;margin-left:18.0pt;margin-bottom:.0001pt;line-height:normal&quot;&gt;&lt;span style=&quot;font-size:12.0pt;font-family:&amp;quot;Times New Roman&amp;quot;,serif;mso-fareast-font-family:&amp;lt;br/&amp;gt;&amp;quot;Times New Roman&amp;quot;;mso-fareast-language:ES-BO&quot;&gt;id_activo&lt;/span&gt;&lt;/li&gt;&lt;li class=&quot;MsoNormal&quot; style=&quot;margin-top:0cm;margin-right:0cm;margin-bottom:0cm;&amp;lt;br/&amp;gt;margin-left:18.0pt;margin-bottom:.0001pt;line-height:normal&quot;&gt;&lt;span style=&quot;font-size:12.0pt;font-family:&amp;quot;Times New Roman&amp;quot;,serif;mso-fareast-font-family:&amp;lt;br/&amp;gt;&amp;quot;Times New Roman&amp;quot;;mso-fareast-language:ES-BO&quot;&gt;tipo_activo&lt;/span&gt;&lt;/li&gt;&lt;li class=&quot;MsoNormal&quot; style=&quot;margin-top:0cm;margin-right:0cm;margin-bottom:0cm;&amp;lt;br/&amp;gt;margin-left:18.0pt;margin-bottom:.0001pt;line-height:normal&quot;&gt;&lt;span style=&quot;font-size:12.0pt;font-family:&amp;quot;Times New Roman&amp;quot;,serif;mso-fareast-font-family:&amp;lt;br/&amp;gt;&amp;quot;Times New Roman&amp;quot;;mso-fareast-language:ES-BO&quot;&gt;nivel_criticidad&lt;/span&gt;&lt;/li&gt;&lt;/ul&gt;" style="rounded=0;html=1;verticalAlign=top;whiteSpace=wrap;fillColor=none;fontColor=light-dark(#FFFFFF,#EDEDED);strokeColor=#FFFFFF;" vertex="1" parent="1">
          <mxGeometry x="30" y="320" width="180" height="90" as="geometry" />
        </mxCell>
        <mxCell id="Tn1fUAYsEKRrsNGboQnT-25" style="edgeStyle=orthogonalEdgeStyle;rounded=0;orthogonalLoop=1;jettySize=auto;html=1;curved=1;fontColor=light-dark(#FFFFFF,#EDEDED);fillColor=none;strokeColor=#FFFFFF;" edge="1" parent="1" source="Tn1fUAYsEKRrsNGboQnT-5" target="Tn1fUAYsEKRrsNGboQnT-1">
          <mxGeometry relative="1" as="geometry" />
        </mxCell>
        <mxCell id="Tn1fUAYsEKRrsNGboQnT-5" value="RESPUESTA&lt;ul&gt;&lt;li class=&quot;MsoNormal&quot; style=&quot;margin-top:0cm;margin-right:0cm;margin-bottom:0cm;&amp;lt;br/&amp;gt;margin-left:18.0pt;margin-bottom:.0001pt;line-height:normal&quot;&gt;&lt;span style=&quot;font-size:12.0pt;font-family:&amp;quot;Times New Roman&amp;quot;,serif;mso-fareast-font-family:&amp;lt;br/&amp;gt;&amp;quot;Times New Roman&amp;quot;;mso-fareast-language:ES-BO&quot;&gt;id_respuesta&lt;/span&gt;&lt;/li&gt;&lt;li class=&quot;MsoNormal&quot; style=&quot;margin-top:0cm;margin-right:0cm;margin-bottom:0cm;&amp;lt;br/&amp;gt;margin-left:18.0pt;margin-bottom:.0001pt;line-height:normal&quot;&gt;&lt;span style=&quot;font-size:12.0pt;font-family:&amp;quot;Times New Roman&amp;quot;,serif;mso-fareast-font-family:&amp;lt;br/&amp;gt;&amp;quot;Times New Roman&amp;quot;;mso-fareast-language:ES-BO&quot;&gt;tipo_respuesta&lt;/span&gt;&lt;/li&gt;&lt;li class=&quot;MsoNormal&quot; style=&quot;margin-top:0cm;margin-right:0cm;margin-bottom:0cm;&amp;lt;br/&amp;gt;margin-left:18.0pt;margin-bottom:.0001pt;line-height:normal&quot;&gt;&lt;span style=&quot;font-size:12.0pt;font-family:&amp;quot;Times New Roman&amp;quot;,serif;mso-fareast-font-family:&amp;lt;br/&amp;gt;&amp;quot;Times New Roman&amp;quot;;mso-fareast-language:ES-BO&quot;&gt;efectividad&lt;/span&gt;&lt;/li&gt;&lt;/ul&gt;" style="rounded=0;html=1;whiteSpace=wrap;fillColor=none;fontColor=light-dark(#FFFFFF,#EDEDED);strokeColor=#FFFFFF;" vertex="1" parent="1">
          <mxGeometry x="30" y="420" width="180" height="110" as="geometry" />
        </mxCell>
        <mxCell id="Tn1fUAYsEKRrsNGboQnT-26" style="edgeStyle=orthogonalEdgeStyle;rounded=0;orthogonalLoop=1;jettySize=auto;html=1;curved=1;fontColor=light-dark(#FFFFFF,#EDEDED);fillColor=none;strokeColor=#FFFFFF;" edge="1" parent="1" source="Tn1fUAYsEKRrsNGboQnT-6" target="Tn1fUAYsEKRrsNGboQnT-1">
          <mxGeometry relative="1" as="geometry" />
        </mxCell>
        <mxCell id="Tn1fUAYsEKRrsNGboQnT-6" value="&lt;div&gt;TIEMPO&lt;br&gt;&lt;ul&gt;&lt;li data-start=&quot;98&quot; data-end=&quot;109&quot;&gt;id_tiempo&lt;/li&gt;&lt;li data-start=&quot;112&quot; data-end=&quot;119&quot;&gt;fecha&lt;/li&gt;&lt;li&gt;mes&lt;/li&gt;&lt;li&gt;anio&lt;/li&gt;&lt;/ul&gt;&lt;br&gt;&lt;/div&gt;" style="rounded=0;html=1;whiteSpace=wrap;fillColor=none;fontColor=light-dark(#FFFFFF,#EDEDED);strokeColor=#FFFFFF;" vertex="1" parent="1">
          <mxGeometry x="30" y="540" width="180" height="120" as="geometry" />
        </mxCell>
        <mxCell id="Tn1fUAYsEKRrsNGboQnT-22" style="edgeStyle=orthogonalEdgeStyle;rounded=0;orthogonalLoop=1;jettySize=auto;html=1;curved=1;fontColor=light-dark(#FFFFFF,#EDEDED);fillColor=none;strokeColor=#FFFFFF;" edge="1" parent="1" source="Tn1fUAYsEKRrsNGboQnT-7" target="Tn1fUAYsEKRrsNGboQnT-1">
          <mxGeometry relative="1" as="geometry" />
        </mxCell>
        <mxCell id="Tn1fUAYsEKRrsNGboQnT-7" value="&lt;div&gt;VICTIMA&lt;ul&gt;&lt;li class=&quot;MsoNormal&quot; style=&quot;margin-top:0cm;margin-right:0cm;margin-bottom:0cm;&amp;lt;br/&amp;gt;margin-left:18.0pt;margin-bottom:.0001pt;line-height:normal&quot;&gt;&lt;span style=&quot;font-size:12.0pt;font-family:&amp;quot;Times New Roman&amp;quot;,serif;mso-fareast-font-family:&amp;lt;br/&amp;gt;&amp;quot;Times New Roman&amp;quot;;mso-fareast-language:ES-BO&quot;&gt;id_victima&lt;/span&gt;&lt;/li&gt;&lt;li class=&quot;MsoNormal&quot; style=&quot;margin-top:0cm;margin-right:0cm;margin-bottom:0cm;&amp;lt;br/&amp;gt;margin-left:18.0pt;margin-bottom:.0001pt;line-height:normal&quot;&gt;&lt;span style=&quot;font-size:12.0pt;font-family:&amp;quot;Times New Roman&amp;quot;,serif;mso-fareast-font-family:&amp;lt;br/&amp;gt;&amp;quot;Times New Roman&amp;quot;;mso-fareast-language:ES-BO&quot;&gt;rango_edad&lt;/span&gt;&lt;/li&gt;&lt;li class=&quot;MsoNormal&quot; style=&quot;margin-top:0cm;margin-right:0cm;margin-bottom:0cm;&amp;lt;br/&amp;gt;margin-left:18.0pt;margin-bottom:.0001pt;line-height:normal&quot;&gt;&lt;span style=&quot;font-size:12.0pt;font-family:&amp;quot;Times New Roman&amp;quot;,serif;mso-fareast-font-family:&amp;lt;br/&amp;gt;&amp;quot;Times New Roman&amp;quot;;mso-fareast-language:ES-BO&quot;&gt;genero&lt;/span&gt;&lt;/li&gt;&lt;li class=&quot;MsoNormal&quot; style=&quot;margin-top:0cm;margin-right:0cm;margin-bottom:0cm;&amp;lt;br/&amp;gt;margin-left:18.0pt;margin-bottom:.0001pt;line-height:normal&quot;&gt;&lt;span style=&quot;font-size:12.0pt;font-family:&amp;quot;Times New Roman&amp;quot;,serif;mso-fareast-font-family:&amp;lt;br/&amp;gt;&amp;quot;Times New Roman&amp;quot;;mso-fareast-language:ES-BO&quot;&gt;sector_actividad&lt;/span&gt;&lt;/li&gt;&lt;li class=&quot;MsoNormal&quot; style=&quot;margin-top:0cm;margin-right:0cm;margin-bottom:0cm;&amp;lt;br/&amp;gt;margin-left:18.0pt;margin-bottom:.0001pt;line-height:normal&quot;&gt;&lt;span style=&quot;font-size:12.0pt;font-family:&amp;quot;Times New Roman&amp;quot;,serif;mso-fareast-font-family:&amp;lt;br/&amp;gt;&amp;quot;Times New Roman&amp;quot;;mso-fareast-language:ES-BO&quot;&gt;tipo_organizacion&lt;/span&gt;&lt;/li&gt;&lt;/ul&gt;&lt;/div&gt;" style="rounded=0;html=1;whiteSpace=wrap;fillColor=none;fontColor=light-dark(#FFFFFF,#EDEDED);strokeColor=#FFFFFF;" vertex="1" parent="1">
          <mxGeometry x="30" y="30" width="190" height="140" as="geometry" />
        </mxCell>
        <mxCell id="Tn1fUAYsEKRrsNGboQnT-27" style="edgeStyle=orthogonalEdgeStyle;rounded=0;orthogonalLoop=1;jettySize=auto;html=1;curved=1;fontColor=light-dark(#FFFFFF,#EDEDED);fillColor=none;strokeColor=#FFFFFF;" edge="1" parent="1" source="Tn1fUAYsEKRrsNGboQnT-8" target="Tn1fUAYsEKRrsNGboQnT-1">
          <mxGeometry relative="1" as="geometry" />
        </mxCell>
        <mxCell id="Tn1fUAYsEKRrsNGboQnT-8" value="UBICACION&lt;ul&gt;&lt;li&gt;&lt;span style=&quot;font-size:12.0pt;font-family:&amp;quot;Times New Roman&amp;quot;,serif;mso-fareast-font-family:&amp;lt;br/&amp;gt;&amp;quot;Times New Roman&amp;quot;;mso-fareast-language:ES-BO&quot;&gt;id_ubicacion&lt;/span&gt;&lt;/li&gt;&lt;li&gt;&lt;span style=&quot;font-size:12.0pt;font-family:&amp;quot;Times New Roman&amp;quot;,serif;mso-fareast-font-family:&amp;lt;br/&amp;gt;&amp;quot;Times New Roman&amp;quot;;mso-fareast-language:ES-BO&quot;&gt;departamento&lt;/span&gt;&lt;/li&gt;&lt;li&gt;&lt;span style=&quot;font-size:12.0pt;font-family:&amp;quot;Times New Roman&amp;quot;,serif;mso-fareast-font-family:&amp;lt;br/&amp;gt;&amp;quot;Times New Roman&amp;quot;;mso-fareast-language:ES-BO&quot;&gt;municipio&lt;/span&gt;&lt;/li&gt;&lt;li&gt;&lt;span style=&quot;font-size:12.0pt;font-family:&amp;quot;Times New Roman&amp;quot;,serif;mso-fareast-font-family:&amp;lt;br/&amp;gt;&amp;quot;Times New Roman&amp;quot;;mso-fareast-language:ES-BO&quot;&gt;area&lt;/span&gt;&lt;/li&gt;&lt;/ul&gt;" style="rounded=0;html=1;whiteSpace=wrap;fillColor=none;fontColor=#FFFFFF;labelBorderColor=none;strokeColor=#FFFFFF;" vertex="1" parent="1">
          <mxGeometry x="30" y="670" width="180" height="130" as="geometry" />
        </mxCell>
        <mxCell id="Tn1fUAYsEKRrsNGboQnT-9" value="&lt;div&gt;FRECUENCIA DE INCIDENTE POR TIPO&lt;br&gt;(NÃºmero de incidentes de un tipo / Total de incidentes) Ã 100&lt;/div&gt;" style="rounded=0;html=1;whiteSpace=wrap;fillColor=none;fontColor=light-dark(#FFFFFF,#EDEDED);strokeColor=#FFFFFF;" vertex="1" parent="1">
          <mxGeometry x="480" y="-70" width="342" height="60" as="geometry" />
        </mxCell>
        <mxCell id="Tn1fUAYsEKRrsNGboQnT-10" value="TIEMPO PROMEDIO DE RESPUESTA&lt;br&gt;&amp;nbsp;Promedio(dim_incidente.tiempo_respuesta_horas)" style="rounded=0;html=1;whiteSpace=wrap;fillColor=none;fontColor=light-dark(#FFFFFF,#EDEDED);strokeColor=#FFFFFF;" vertex="1" parent="1">
          <mxGeometry x="490" y="110" width="341" height="60" as="geometry" />
        </mxCell>
        <mxCell id="Tn1fUAYsEKRrsNGboQnT-11" value="COSTO ECONOMICO POR INCIDENTE&lt;br&gt;Promedio(dim_incidente.costo_total)" style="rounded=0;html=1;whiteSpace=wrap;fillColor=none;fontColor=light-dark(#FFFFFF,#EDEDED);strokeColor=#FFFFFF;" vertex="1" parent="1">
          <mxGeometry x="490" y="180" width="345" height="60" as="geometry" />
        </mxCell>
        <mxCell id="Tn1fUAYsEKRrsNGboQnT-12" value="TASA DE RESOLUCION EXITOSA&lt;br&gt; (NÃºmero de casos con dim_respuesta.efectividad = &quot;Alta&quot; / Total de casos) Ã 100" style="rounded=0;html=1;whiteSpace=wrap;fillColor=none;fontColor=light-dark(#FFFFFF,#EDEDED);strokeColor=#FFFFFF;" vertex="1" parent="1">
          <mxGeometry x="490" y="250" width="345" height="60" as="geometry" />
        </mxCell>
        <mxCell id="Tn1fUAYsEKRrsNGboQnT-13" value="DISTRIBUCION SECTORIAL DE VICTIMAS&lt;br&gt; (NÃºmero de incidentes en sector X / Total de incidentes) Ã 100" style="rounded=0;html=1;whiteSpace=wrap;fillColor=none;fontColor=light-dark(#FFFFFF,#EDEDED);strokeColor=#FFFFFF;" vertex="1" parent="1">
          <mxGeometry x="490" y="320" width="350" height="60" as="geometry" />
        </mxCell>
        <mxCell id="Tn1fUAYsEKRrsNGboQnT-14" value="TIEMPO PROMEDIO DE DETECCION&lt;br&gt;Promedio(dim_incidente.tiempo_deteccion_horas)" style="rounded=0;html=1;whiteSpace=wrap;fillColor=none;fontColor=light-dark(#FFFFFF,#EDEDED);strokeColor=#FFFFFF;" vertex="1" parent="1">
          <mxGeometry x="480" width="348" height="90" as="geometry" />
        </mxCell>
        <mxCell id="Tn1fUAYsEKRrsNGboQnT-15" value="EVOLUCION TEMPORAL DE AMENZAS&lt;br&gt;Conteo de incidentes por periodo (mes, trimestre o aÃ±o)" style="rounded=0;html=1;whiteSpace=wrap;fillColor=none;fontColor=light-dark(#FFFFFF,#EDEDED);strokeColor=#FFFFFF;" vertex="1" parent="1">
          <mxGeometry x="490" y="390" width="348" height="60" as="geometry" />
        </mxCell>
        <mxCell id="Tn1fUAYsEKRrsNGboQnT-18" value="COBERTURA GEOGRÃFICA DE INCIDENTES&lt;br&gt;(Conteo de incidentes por departamento, municipio o Ã¡rea)" style="rounded=0;html=1;whiteSpace=wrap;fillColor=none;fontColor=light-dark(#FFFFFF,#EDEDED);strokeColor=#FFFFFF;" vertex="1" parent="1">
          <mxGeometry x="490" y="534.5" width="355" height="60" as="geometry" />
        </mxCell>
        <mxCell id="Tn1fUAYsEKRrsNGboQnT-19" value="NIVEL DE SOFISTICACIÃN DE AMENAZAS&lt;br&gt; (NÃºmero de incidentes con nivel X / Total de incidentes) Ã 100" style="rounded=0;html=1;whiteSpace=wrap;fillColor=none;fontColor=light-dark(#FFFFFF,#EDEDED);strokeColor=#FFFFFF;" vertex="1" parent="1">
          <mxGeometry x="490" y="460" width="348" height="60" as="geometry" />
        </mxCell>
      </root>
    </mxGraphModel>
  </diagram>
</mxfile>
